<?xml version="1.0" encoding="UTF-8" standalone="no"?>
<!-- Created with Inkscape (http://www.inkscape.org/) -->

<svg
   xmlns:dc="http://purl.org/dc/elements/1.1/"
   xmlns:cc="http://creativecommons.org/ns#"
   xmlns:rdf="http://www.w3.org/1999/02/22-rdf-syntax-ns#"
   xmlns:svg="http://www.w3.org/2000/svg"
   xmlns="http://www.w3.org/2000/svg"
   xmlns:sodipodi="http://sodipodi.sourceforge.net/DTD/sodipodi-0.dtd"
   xmlns:inkscape="http://www.inkscape.org/namespaces/inkscape"
   width="305.38928mm"
   height="94.15387mm"
   viewBox="0 0 305.38928 94.15387"
   version="1.1"
   id="svg32"
   inkscape:version="0.92.3 (2405546, 2018-03-11)"
   sodipodi:docname="bing.svg">
  <defs
     id="defs26" />
  <sodipodi:namedview
     id="base"
     pagecolor="#ffffff"
     bordercolor="#666666"
     borderopacity="1.0"
     inkscape:pageopacity="0.0"
     inkscape:pageshadow="2"
     inkscape:zoom="1.4"
     inkscape:cx="596.74499"
     inkscape:cy="119.6761"
     inkscape:document-units="mm"
     inkscape:current-layer="layer1"
     showgrid="false"
     inkscape:window-width="2736"
     inkscape:window-height="1699"
     inkscape:window-x="-13"
     inkscape:window-y="-13"
     inkscape:window-maximized="1" />
  <metadata
     id="metadata29">
    <rdf:RDF>
      <cc:Work
         rdf:about="">
        <dc:format>image/svg+xml</dc:format>
        <dc:type
           rdf:resource="http://purl.org/dc/dcmitype/StillImage" />
        <dc:title></dc:title>
      </cc:Work>
    </rdf:RDF>
  </metadata>
  <g
     inkscape:label="Layer 1"
     inkscape:groupmode="layer"
     id="layer1"
     transform="translate(-11.725006,-123.9625)">
    <path
       id="path34"
       d="m 108.5222,199.56171 c 14.01681,-14.49579 14.73563,-38.46227 1.43762,-53.92443 14.19652,7.92436 25.87719,20.10083 32.70589,28.21847 -7.18812,7.53788 -19.40788,18.74796 -34.14351,25.70596 z M 37.899084,159.74648 c 5.930186,-5.41175 12.219778,-10.05041 19.048472,-13.91598 -13.118286,15.46222 -12.399479,39.23542 1.617325,53.73121 -14.735611,-6.958 -27.135091,-18.16808 -34.143492,-25.70596 4.133162,-5.02515 8.625725,-9.66381 13.477695,-14.10927 z m 45.644463,42.90765 c -15.813827,0 -28.752422,-13.91599 -28.752422,-30.92442 0,-17.0084 12.938595,-30.9244 28.752422,-30.9244 15.813824,0 28.752413,13.916 28.752413,30.9244 0,17.00843 -12.938589,30.92442 -28.752413,30.92442 z m 69.904313,-34.21012 c -10.42275,-13.14292 -37.73755,-43.10095 -69.904313,-43.10095 -32.166768,0 -59.481565,29.95803 -69.904314,43.10095 -2.695539,3.47899 -2.515838,8.31095 0.359426,11.59667 10.60245,11.98325 37.737549,38.07569 69.544909,38.07569 31.807362,0 58.942462,-26.09244 69.724602,-38.07569 2.69555,-3.09243 2.87524,-8.11768 0.17968,-11.59667 z"
       inkscape:connector-curvature="0"
       style="stroke-width:1.8636657" />
    <ellipse
       id="circle36"
       cy="171.72969"
       cx="83.543518"
       style="stroke-width:1.8636657"
       rx="17.970259"
       ry="19.32777" />
    <path
       id="path60"
       d="m 270.25452,198.18114 c 14.0168,-14.49587 14.73567,-38.46228 1.43764,-53.92451 14.19651,7.92436 25.87717,20.10089 32.70591,28.21857 -7.18815,7.53778 -19.40788,18.74795 -34.14355,25.70594 z M 199.63143,158.3659 c 5.93015,-5.41175 12.2198,-10.05042 19.04844,-13.91599 -13.11829,15.46224 -12.39943,39.23536 1.61737,53.73123 -14.73566,-6.95799 -27.13511,-18.16816 -34.14352,-25.70594 4.13316,-5.02525 8.62571,-9.66391 13.47771,-14.1093 z m 45.64448,42.90766 c -15.81388,0 -28.75245,-13.91599 -28.75245,-30.92441 0,-17.00849 12.93857,-30.92448 28.75245,-30.92448 15.81383,0 28.7524,13.91599 28.7524,30.92448 0,17.00842 -12.93857,30.92441 -28.7524,30.92441 z m 69.90432,-34.21012 c -10.4228,-13.1429 -37.73755,-43.10094 -69.90432,-43.10094 -32.16682,0 -59.48158,29.95804 -69.90433,43.10094 -2.69555,3.47901 -2.51585,8.31088 0.35941,11.59665 10.60245,11.98319 37.73754,38.0757 69.54495,38.0757 31.80732,0 58.9424,-26.09251 69.72456,-38.0757 2.69552,-3.09248 2.87524,-8.11764 0.18008,-11.59665 z"
       inkscape:connector-curvature="0"
       style="stroke-width:1.8636657" />
    <ellipse
       id="circle62"
       cy="170.34917"
       cx="245.27596"
       style="stroke-width:1.8636657"
       rx="17.970259"
       ry="19.32777" />
  </g>
</svg>
