<?xml version="1.0" encoding="UTF-8" standalone="no"?>
<!-- Created with Inkscape (http://www.inkscape.org/) -->

<svg
   xmlns:dc="http://purl.org/dc/elements/1.1/"
   xmlns:cc="http://creativecommons.org/ns#"
   xmlns:rdf="http://www.w3.org/1999/02/22-rdf-syntax-ns#"
   xmlns:svg="http://www.w3.org/2000/svg"
   xmlns="http://www.w3.org/2000/svg"
   xmlns:sodipodi="http://sodipodi.sourceforge.net/DTD/sodipodi-0.dtd"
   xmlns:inkscape="http://www.inkscape.org/namespaces/inkscape"
   width="266.32202mm"
   height="257.93094mm"
   viewBox="0 0 266.32202 257.93094"
   version="1.1"
   id="svg179"
   inkscape:version="0.92.3 (2405546, 2018-03-11)"
   sodipodi:docname="ebay.svg">
  <defs
     id="defs173" />
  <sodipodi:namedview
     id="base"
     pagecolor="#ffffff"
     bordercolor="#666666"
     borderopacity="1.0"
     inkscape:pageopacity="0.0"
     inkscape:pageshadow="2"
     inkscape:zoom="0.35"
     inkscape:cx="1121.8571"
     inkscape:cy="161.7143"
     inkscape:document-units="mm"
     inkscape:current-layer="layer1"
     showgrid="false"
     inkscape:window-width="2736"
     inkscape:window-height="1699"
     inkscape:window-x="-13"
     inkscape:window-y="-13"
     inkscape:window-maximized="1" />
  <metadata
     id="metadata176">
    <rdf:RDF>
      <cc:Work
         rdf:about="">
        <dc:format>image/svg+xml</dc:format>
        <dc:type
           rdf:resource="http://purl.org/dc/dcmitype/StillImage" />
        <dc:title></dc:title>
      </cc:Work>
    </rdf:RDF>
  </metadata>
  <g
     inkscape:label="Layer 1"
     inkscape:groupmode="layer"
     id="layer1"
     transform="translate(190.99137,66.310708)">
    <g
       id="g187"
       transform="matrix(3.4143849,0,0,3.5823743,-221.72083,-109.2992)">
      <path
         id="path181"
         d="m 77,30 c -0.8,0 -1.5,0.1 -2.3,0.3 C 74.9,29.6 75,28.8 75,28 75,22.5 70.5,18 65,18 62.7,18 60.5,18.8 58.8,20.1 58,15.5 53.9,12 49,12 44.4,12 40.5,15.2 39.3,19.5 37.5,16.8 34.5,15 31,15 c -5.5,0 -10,4.5 -10,10 0,0.8 0.1,1.5 0.3,2.3 C 20.5,27.1 19.8,27 19,27 13.5,27 9,31.5 9,37 c 0,5.5 4.5,10 10,10 0,0 0,0 0.1,0 0.5,5.1 4.8,9 9.9,9 2.3,0 4.4,-0.8 6.1,-2.1 0,0.3 -0.1,0.7 -0.1,1.1 0,5.5 4.5,10 10,10 5.2,0 9.5,-4 10,-9.1 1.8,2.5 4.7,4.1 8,4.1 5.5,0 10,-4.5 10,-10 0,-0.3 0,-0.6 0,-0.9 1.2,0.5 2.6,0.9 4,0.9 5.5,0 10,-4.5 10,-10 0,-5.5 -4.5,-10 -10,-10 z"
         inkscape:connector-curvature="0" />
      <circle
         id="circle183"
         r="6"
         cy="69"
         cx="29" />
      <circle
         id="circle185"
         r="4.5"
         cy="79.5"
         cx="17" />
    </g>
  </g>
</svg>
