<?xml version="1.0" encoding="UTF-8" standalone="no"?>
<!-- Created with Inkscape (http://www.inkscape.org/) -->

<svg
   xmlns:dc="http://purl.org/dc/elements/1.1/"
   xmlns:cc="http://creativecommons.org/ns#"
   xmlns:rdf="http://www.w3.org/1999/02/22-rdf-syntax-ns#"
   xmlns:svg="http://www.w3.org/2000/svg"
   xmlns="http://www.w3.org/2000/svg"
   xmlns:sodipodi="http://sodipodi.sourceforge.net/DTD/sodipodi-0.dtd"
   xmlns:inkscape="http://www.inkscape.org/namespaces/inkscape"
   width="214.5544mm"
   height="259.75656mm"
   viewBox="0 0 214.5544 259.75656"
   version="1.1"
   id="svg131"
   inkscape:version="0.92.3 (2405546, 2018-03-11)"
   sodipodi:docname="google.svg">
  <defs
     id="defs125" />
  <sodipodi:namedview
     id="base"
     pagecolor="#ffffff"
     bordercolor="#666666"
     borderopacity="1.0"
     inkscape:pageopacity="0.0"
     inkscape:pageshadow="2"
     inkscape:zoom="0.35"
     inkscape:cx="-173.11426"
     inkscape:cy="208.02142"
     inkscape:document-units="mm"
     inkscape:current-layer="layer1"
     showgrid="false"
     inkscape:window-width="2736"
     inkscape:window-height="1699"
     inkscape:window-x="-13"
     inkscape:window-y="-13"
     inkscape:window-maximized="1" />
  <metadata
     id="metadata128">
    <rdf:RDF>
      <cc:Work
         rdf:about="">
        <dc:format>image/svg+xml</dc:format>
        <dc:type
           rdf:resource="http://purl.org/dc/dcmitype/StillImage" />
        <dc:title></dc:title>
      </cc:Work>
    </rdf:RDF>
  </metadata>
  <g
     inkscape:label="Layer 1"
     inkscape:groupmode="layer"
     id="layer1"
     transform="translate(-151.63648,55.884241)">
    <g
       id="g137"
       transform="matrix(3.2907117,0,0,3.2922253,100.95952,-83.868156)">
      <path
         id="path133"
         d="m 59.3,37.3 c -4.2,0 -7.5,-3.4 -7.5,-7.5 0,-4.1 3.4,-7.5 7.5,-7.5 4.2,0 7.5,3.4 7.5,7.5 0,4.1 -3.4,7.5 -7.5,7.5 z M 76.2,25.1 c -0.4,-1.4 -0.9,-2.7 -1.6,-3.9 l 1.6,-4.7 -3.6,-3.6 -4.7,1.6 C 66.7,13.8 65.4,13.3 64,12.9 L 61.8,8.5 h -5 l -2.2,4.4 c -1.4,0.4 -2.7,0.9 -3.9,1.6 L 46,12.9 42.4,16.5 44,21.2 c -0.7,1.2 -1.2,2.5 -1.6,3.9 L 38,27.3 v 5 l 4.4,2.2 c 0.4,1.4 0.9,2.7 1.6,3.9 l -1.6,4.7 3.5,3.5 4.7,-1.6 c 1.2,0.7 2.5,1.2 3.9,1.6 l 2.2,4.4 h 5 l 2.2,-4.4 c 1.4,-0.4 2.7,-0.9 3.9,-1.6 l 4.7,1.6 3.6,-3.5 -1.6,-4.7 c 0.7,-1.2 1.3,-2.6 1.7,-3.9 l 4.4,-2.2 v -5 z"
         inkscape:connector-curvature="0" />
      <path
         id="path135"
         d="m 36.7,73.7 c -4.2,0 -7.5,-3.4 -7.5,-7.5 0,-4.2 3.4,-7.5 7.5,-7.5 4.2,0 7.5,3.4 7.5,7.5 0,4.1 -3.3,7.5 -7.5,7.5 z M 52,57.6 53.6,52.9 50,49.3 45.3,50.9 c -1.2,-0.7 -2.6,-1.2 -3.9,-1.6 l -2.2,-4.4 h -5 L 32,49.3 c -1.4,0.4 -2.7,0.9 -3.9,1.6 l -4.7,-1.6 -3.5,3.5 1.5,4.7 c -0.7,1.2 -1.2,2.6 -1.6,3.9 l -4.4,2.2 v 5 l 4.4,2.2 c 0.4,1.4 0.9,2.7 1.6,3.9 l -1.5,4.7 3.5,3.5 4.7,-1.5 c 1.2,0.7 2.5,1.2 3.9,1.6 l 2.2,4.4 h 5 L 41.4,83 c 1.4,-0.4 2.7,-0.9 3.9,-1.6 L 50,83 53.5,79.4 52,74.8 c 0.7,-1.2 1.2,-2.5 1.6,-3.9 L 58,68.7 v -5 L 53.6,61.5 C 53.2,60.1 52.7,58.8 52,57.6 Z"
         inkscape:connector-curvature="0" />
    </g>
  </g>
</svg>
